<svg xmlns="http://www.w3.org/2000/svg" version="1.1" xmlns:xlink="http://www.w3.org/1999/xlink" xmlns:svgjs="http://svgjs.dev/svgjs" style="overflow: hidden; height: 85vh;" viewBox="0 0 1920 1080" class="overflow-hidden rounded-md drop-shadow-lg transition duration-300"><rect width="1920" height="1080" fill="#45194d"/><g clip-path="url(&quot;#SvgjsClipPath1191&quot;)"><g transform="matrix(-0.7988571260278472,-0.8272407703894484,0.8272407703894484,-0.7988571260278472,1236.0293262092198,1745.224511009187)"><path d="M0,-1080C3.298901375703816,-985.4228510532256,11.871929050767033,-702.1168833287968,19.793408254222896,-512.5371063193538C27.71488745767876,-322.95732930991085,44.02037941133623,-110.4011502790875,47.52887522073519,57.47866205665791C51.037371030134146,225.3584743924033,41.72256111576806,330.9912126835725,40.84438311061666,494.74176769511854C39.966205105465264,658.4923227066646,57.13223363539167,845.2328905378855,42.25980718982679,1039.9819921259343C27.387380744261904,1234.731093713983,-41.34687436446819,1476.5667092444003,-48.390175562772654,1663.2363772234112C-55.43347676107712,1849.906045202422,-8.06502926046211,2077.2060628705685,0,2160L 1920 2160 L 1920 -1080 Z" fill="url(&quot;#SvgjsLinearGradient1182&quot;)"/><path d="M213.33333333333331,-1080C216.60158405030697,-965.4224926527521,229.82753808017083,-608.3467423562068,232.9428376351753,-392.5349559165129C236.05813719017976,-176.72316947681895,242.00972510618428,8.26014659388133,232.02513066336013,214.87071863816368C222.04053622053598,421.481290682446,181.52257711636716,629.5645419140211,173.03527097823041,847.1284763491814C164.54796484009367,1064.6924107843415,174.38495010868922,1301.4424046406555,181.10129383453972,1520.2543252491253C187.8176375603902,1739.066245857595,207.96132675020104,2053.3757208748543,213.33333333333331,2160L 1920 2160 L 1920 -1080 Z" fill="url(&quot;#SvgjsLinearGradient1183&quot;)"/><path d="M426.66666666666663,-1080C418.2183149959213,-991.5999462558718,375.40307997948304,-729.7687852048566,375.9765566421946,-549.599677535231C376.5500333049062,-369.4305698656053,415.4290762678728,-172.49425449187197,430.10752664293614,1.0146460177539751C444.78597701799947,174.5235465273799,457.63793811886217,315.59238695993156,464.0472588925746,491.4537255225247C470.456579666287,667.3150640851178,476.0940471768717,877.4016084764717,468.5634512852106,1056.1826773933124C461.0328553935495,1234.963746310153,425.846480979032,1380.1705852557877,418.863683542608,1564.140139023569C411.880886106184,1748.1096927913502,425.3661694793235,2060.690023170595,426.66666666666663,2160L 1920 2160 L 1920 -1080 Z" fill="url(&quot;#SvgjsLinearGradient1184&quot;)"/><path d="M640,-1080C648.470653294469,-955.4873269417672,686.3526451999875,-612.7098122749056,690.8239197668139,-332.92396165060325C695.2951943336403,-53.13811102630086,673.7478225636069,316.8391554821447,666.8276474009587,598.7151037458144C659.9074722383104,880.5910520094842,653.7741433577511,1098.1175785557177,649.3028687909247,1358.3317279314153C644.8315942240982,1618.545877307113,641.5504781318208,2026.3886213219025,640,2160L 1920 2160 L 1920 -1080 Z" fill="url(&quot;#SvgjsLinearGradient1185&quot;)"/><path d="M853.3333333333333,-1080C845.3123327833259,-973.3386118958416,814.6780183794908,-666.2494311314177,805.207330033289,-440.03167137504965C795.7366416870873,-213.81391161868157,796.8663236632899,65.15755563645521,796.5092032561224,277.30655853820844C796.1520828489549,489.4555614399617,796.7871076090295,620.3911148925808,803.0646075902845,832.8623460354697C809.3421075715395,1045.3335771783586,825.7960821864774,1330.9443364014533,834.1742031436522,1552.1339453955416C842.552324100827,1773.3235543896299,850.1401449683864,2058.688990899257,853.3333333333333,2160L 1920 2160 L 1920 -1080 Z" fill="url(&quot;#SvgjsLinearGradient1186&quot;)"/><path d="M1066.6666666666667,-1080C1059.4272537938873,-1011.8479245198099,1015.1605964106888,-815.3971010025801,1023.2301894299902,-671.0875471188597C1031.2997824492918,-526.7779932351392,1097.6721873301954,-383.5881768855014,1115.0842247824758,-214.14267669767725C1132.4962622347562,-44.69717650985305,1145.2475147628218,182.07806903781213,1127.702414143672,345.5854540080854C1110.1573135245224,509.0928389783586,1020.538683079598,622.5076698415355,1009.8136210675772,766.9016331239623C999.0885590555564,911.295596406389,1062.2485299993368,1063.5203604580463,1063.3520420715477,1211.9492337026456C1064.4555541437585,1360.378106947245,1015.8822560683228,1499.4664115419992,1016.4346935008426,1657.474872591558C1016.9871309333624,1815.483333641117,1058.2946711390293,2076.245812098593,1066.6666666666667,2160L 1920 2160 L 1920 -1080 Z" fill="url(&quot;#SvgjsLinearGradient1187&quot;)"/><path d="M1280,-1080C1272.3136699366046,-988.3964316665569,1231.7265755849305,-715.4493982750108,1233.8820196196282,-530.3785899993412C1236.0374636543258,-345.3077817236716,1275.3606656917705,-143.7568936047591,1292.932664208186,30.424849654017706C1310.5046627246015,204.6065929127945,1345.0132002928815,332.11034818661017,1339.3140107181207,514.7118695533196C1333.61482114336,697.3133909200291,1274.9804807063579,950.2890971074323,1258.737526759621,1126.0339778542743C1242.4945728128841,1301.7788586011163,1238.3125414976369,1396.8534836767508,1241.8562870377,1569.1811540343717C1245.400032577763,1741.5088243919927,1273.6427145062833,2061.530192339062,1280,2160L 1920 2160 L 1920 -1080 Z" fill="url(&quot;#SvgjsLinearGradient1188&quot;)"/><path d="M1493.3333333333333,-1080C1498.8178046452326,-947.7205902486179,1526.2479298147016,-561.5551493121695,1526.2401612047297,-286.32354149170754C1526.2323925947578,-11.091933671245556,1498.67882173152,290.9440323691321,1493.2867216735017,571.389646922772C1487.8946216154834,851.8352614764119,1493.8797922466476,1131.5817536505938,1493.8875608566195,1396.3501458301319C1493.8953294665914,1661.11853800967,1493.4257045872143,2032.725024305022,1493.3333333333333,2160L 1920 2160 L 1920 -1080 Z" fill="url(&quot;#SvgjsLinearGradient1189&quot;)"/><path d="M1706.6666666666665,-1080C1709.5785739030093,-999.0703630956345,1724.2815279305446,-746.3936494267667,1724.1381100847238,-594.4221785738072C1723.994692238903,-442.4507077208476,1714.7437069783973,-316.18206872134,1705.8061595917418,-168.17117488224292C1696.8686122050863,-20.160281043145886,1680.1463725206913,147.49325700510067,1670.51282576479,293.64318446077505C1660.8792790088887,439.79311191644945,1634.0526511220942,547.474329571682,1648.0048790563346,708.7283898518034C1661.957106990575,869.9824501319248,1750.7283397733113,1102.3473044556104,1754.2261933702327,1261.1675461415034C1757.7240469671542,1419.9877878273965,1676.9185884217911,1511.844430990746,1668.9920006378634,1661.6498399671623C1661.0654128539356,1811.4552489435785,1700.387555661866,2076.941639994527,1706.6666666666665,2160L 1920 2160 L 1920 -1080 Z" fill="url(&quot;#SvgjsLinearGradient1190&quot;)"/></g></g><defs><linearGradient x1="0.1" y1="0" x2="0" y2="1" id="SvgjsLinearGradient1182"><stop stop-color="#45194d" offset="0"/><stop stop-color="#3c194d" offset="0"/></linearGradient><linearGradient x1="0.1" y1="0" x2="0" y2="1" id="SvgjsLinearGradient1183"><stop stop-color="#652470" offset="0"/><stop stop-color="#582470" offset="0.1111111111111111"/></linearGradient><linearGradient x1="0.1" y1="0" x2="0" y2="1" id="SvgjsLinearGradient1184"><stop stop-color="#843094" offset="0"/><stop stop-color="#733094" offset="0.2222222222222222"/></linearGradient><linearGradient x1="0.1" y1="0" x2="0" y2="1" id="SvgjsLinearGradient1185"><stop stop-color="#a43bb7" offset="0"/><stop stop-color="#8f3bb7" offset="0.3333333333333333"/></linearGradient><linearGradient x1="0.1" y1="0" x2="0" y2="1" id="SvgjsLinearGradient1186"><stop stop-color="#b859c9" offset="0"/><stop stop-color="#a559c9" offset="0.4444444444444444"/></linearGradient><linearGradient x1="0.1" y1="0" x2="0" y2="1" id="SvgjsLinearGradient1187"><stop stop-color="#c77cd4" offset="0"/><stop stop-color="#b87cd4" offset="0.5555555555555556"/></linearGradient><linearGradient x1="0.1" y1="0" x2="0" y2="1" id="SvgjsLinearGradient1188"><stop stop-color="#d69fe0" offset="0"/><stop stop-color="#cb9fe0" offset="0.6666666666666666"/></linearGradient><linearGradient x1="0.1" y1="0" x2="0" y2="1" id="SvgjsLinearGradient1189"><stop stop-color="#e5c3eb" offset="0"/><stop stop-color="#dec3eb" offset="0.7777777777777778"/></linearGradient><linearGradient x1="0.1" y1="0" x2="0" y2="1" id="SvgjsLinearGradient1190"><stop stop-color="#f4e6f7" offset="0"/><stop stop-color="#f1e6f7" offset="0.8888888888888888"/></linearGradient><clipPath id="SvgjsClipPath1191"><rect width="1920" height="1080"/></clipPath></defs></svg>