<svg xmlns="http://www.w3.org/2000/svg" version="1.1" xmlns:xlink="http://www.w3.org/1999/xlink" xmlns:svgjs="http://svgjs.dev/svgjs" style="overflow: hidden; height: 85vh;" viewBox="0 0 1920 1080" class="overflow-hidden rounded-md drop-shadow-lg transition duration-300"><rect width="1920" height="1080" fill="#673781"/><g clip-path="url(&quot;#SvgjsClipPath2235&quot;)"><g transform="matrix(-0.27821017993961794,-1.1158400852173957,1.1158400852173957,-0.27821017993961794,575.2420128936265,1718.4146437688355)"><path d="M0,-1080C-12.63463259020333,-927.1010705058545,-87.8971204783082,-445.5582783588637,-75.80779554121997,-162.60642303512702C-63.71847060413176,120.34543228860963,61.925495470549606,377.01150664531826,72.5359496225293,617.7111319424198C83.146403774509,858.4107572395213,-0.05574569225358594,1024.5431840712192,-12.145070629341802,1281.5913287474825C-24.234395566430017,1538.6394734237458,-2.024178438223634,2013.5985547912471,0,2160L 1920 2160 L 1920 -1080 Z" fill="url(&quot;#SvgjsLinearGradient2228&quot;)"/><path d="M274.2857142857143,-1080C280.35893635316074,-996.0095869314343,326.6459998844186,-713.3642062155817,310.72504669039324,-576.0575215886057C294.8040934963679,-438.7508369616297,199.22567135366998,-420.7659242330822,178.7599951215622,-256.1598922381443C158.29431888945444,-91.55386024320643,170.1827846574354,242.13140799386906,187.93098929774666,411.57867038102165C205.67919393805792,581.0259327681742,256.40364515134615,619.0136036633592,285.24922296342976,760.5236820847712C314.09480077551336,902.0337605061832,346.4986207959105,1109.9819638155855,361.0044561702483,1260.6391409094938C375.51029154458615,1411.2963180034021,386.7373588568791,1514.5732681331374,372.28423520945677,1664.4667446482217C357.83111156203444,1814.360221163306,290.618801106338,2077.411124108037,274.2857142857143,2160L 1920 2160 L 1920 -1080 Z" fill="url(&quot;#SvgjsLinearGradient2229&quot;)"/><path d="M548.5714285714286,-1080C551.7140093140601,-1005.0209435791405,574.080720323261,-809.8169908966291,567.4269130272179,-630.1256614748435C560.7731057311748,-450.4343320530578,504.88923531872763,-193.50063391107395,508.64858479517,-1.8520234692859106C512.4079342716124,189.79658697250213,580.4353272226103,355.9585766215308,589.9830098858722,519.7660011758848C599.5306925491341,683.5734257302387,590.266701759525,789.430709835754,565.9346807747409,980.9925238568375C541.6026597899568,1172.554337877921,446.8847593443862,1472.6356392785253,443.9908839771675,1669.1368853023857C441.09700860994883,1865.6381313262461,531.1413378057184,2078.189480883731,548.5714285714286,2160L 1920 2160 L 1920 -1080 Z" fill="url(&quot;#SvgjsLinearGradient2230&quot;)"/><path d="M822.8571428571428,-1080C812.0400947623654,-1011.1606530285208,750.979760916123,-808.3422962013417,757.9548542884781,-666.9639181711244C764.9299476608332,-525.5855401409071,870.6754153694307,-379.87561936110677,864.7077030912734,-231.72973181869602C858.7399908131162,-83.58384427628528,739.9429811300251,41.94266817273265,722.1485806195345,221.91140708334C704.3541801090439,401.8801459939474,747.3293690763069,683.3512809409317,757.9413000283298,848.082701644948C768.5532309803527,1012.8141223489642,763.5071539159077,1057.5126407205782,785.8201663316725,1210.2999313074374C808.1331787474372,1363.0872218942966,885.6465451020068,1606.5231003840088,891.8193745229186,1764.8064451661025C897.9922039438303,1923.0897899481963,834.350848134772,2094.134407527684,822.8571428571428,2160L 1920 2160 L 1920 -1080 Z" fill="url(&quot;#SvgjsLinearGradient2231&quot;)"/><path d="M1097.142857142857,-1080C1097.8801544441762,-983.5405717157803,1117.5753126315947,-694.2908213411625,1101.5666409507712,-501.24343029468173C1085.5579692699478,-308.1960392482009,984.693091240667,-78.95419418441602,1001.0908270579163,78.28434627888473C1017.4885628751656,235.52288674218548,1184.977691165734,268.42379568521574,1199.953055854267,442.1878124851227C1214.9284205427998,615.9518292850297,1125.9447965778834,907.980506332747,1090.9430151891136,1120.8684470783264C1055.9412338003438,1333.7563878239057,988.9090605293577,1546.3268648049866,989.9423675216483,1719.5154569585989C990.9756745139389,1892.7040491122111,1079.2761088726556,2086.5859094930997,1097.142857142857,2160L 1920 2160 L 1920 -1080 Z" fill="url(&quot;#SvgjsLinearGradient2232&quot;)"/><path d="M1371.4285714285716,-1080C1368.9394355013587,-977.282433119126,1366.7248981091989,-628.8591364450019,1356.493755865294,-463.6945987147564C1346.262613621389,-298.53006098451095,1324.4279781128644,-243.05745006888156,1310.041717965141,-89.01277361852728C1295.6554578174178,65.03190283182703,1244.24098773108,249.85088560054186,1270.1761949789548,460.5734599873694C1296.1114022268296,671.296034374197,1451.4433634636912,977.7999750231338,1465.65296145239,1175.322672702438C1479.8625594410887,1372.8453703817422,1371.1378479151167,1481.596758180268,1355.433782911147,1645.709646063195C1339.7297179071775,1809.822533946122,1368.7627733423342,2074.2849410105323,1371.4285714285716,2160L 1920 2160 L 1920 -1080 Z" fill="url(&quot;#SvgjsLinearGradient2233&quot;)"/><path d="M1645.7142857142856,-1080C1653.5246942919093,-950.1328234477139,1685.292390136725,-581.9480963237993,1692.576737180028,-300.7969406862836C1699.8610842233309,-19.645785048768005,1693.3704865685374,322.9835658433645,1689.420367974103,606.9069338250939C1685.4702493796688,890.8303018068234,1676.1603726567253,1143.8944228416087,1668.8760256134224,1402.7432672040932C1661.5916785701195,1661.5921115665776,1649.574575697475,2033.7905445340155,1645.7142857142856,2160L 1920 2160 L 1920 -1080 Z" fill="url(&quot;#SvgjsLinearGradient2234&quot;)"/></g></g><defs><linearGradient x1="0.1" y1="0" x2="0" y2="1" id="SvgjsLinearGradient2228"><stop stop-color="#673781" offset="0"/><stop stop-color="#5b3781" offset="0"/></linearGradient><linearGradient x1="0.1" y1="0" x2="0" y2="1" id="SvgjsLinearGradient2229"><stop stop-color="#5b3071" offset="0"/><stop stop-color="#503071" offset="0.14285714285714285"/></linearGradient><linearGradient x1="0.1" y1="0" x2="0" y2="1" id="SvgjsLinearGradient2230"><stop stop-color="#4e2a62" offset="0"/><stop stop-color="#452a62" offset="0.2857142857142857"/></linearGradient><linearGradient x1="0.1" y1="0" x2="0" y2="1" id="SvgjsLinearGradient2231"><stop stop-color="#422352" offset="0"/><stop stop-color="#3a2352" offset="0.42857142857142855"/></linearGradient><linearGradient x1="0.1" y1="0" x2="0" y2="1" id="SvgjsLinearGradient2232"><stop stop-color="#351c43" offset="0"/><stop stop-color="#2e1c43" offset="0.5714285714285714"/></linearGradient><linearGradient x1="0.1" y1="0" x2="0" y2="1" id="SvgjsLinearGradient2233"><stop stop-color="#291633" offset="0"/><stop stop-color="#241633" offset="0.7142857142857143"/></linearGradient><linearGradient x1="0.1" y1="0" x2="0" y2="1" id="SvgjsLinearGradient2234"><stop stop-color="#1c0f24" offset="0"/><stop stop-color="#190f24" offset="0.8571428571428571"/></linearGradient><clipPath id="SvgjsClipPath2235"><rect width="1920" height="1080"/></clipPath></defs></svg>